<mxfile host="app.diagrams.net" modified="2024-04-16T08:43:35.251Z" agent="Mozilla/5.0 (Macintosh; Intel Mac OS X 10_15_7) AppleWebKit/537.36 (KHTML, like Gecko) Chrome/123.0.0.0 Safari/537.36" etag="3vd4IIi6d-qx1Mhrl8uK" version="24.2.5" type="github">
  <diagram name="Page-1" id="8378b5f6-a2b2-b727-a746-972ab9d02e00">
    <mxGraphModel dx="1019" dy="425" grid="1" gridSize="10" guides="1" tooltips="1" connect="0" arrows="1" fold="1" page="1" pageScale="1.5" pageWidth="1169" pageHeight="827" background="none" math="0" shadow="0">
      <root>
        <mxCell id="0" />
        <mxCell id="1" parent="0" />
        <mxCell id="63" value="1" style="strokeColor=#DEEDFF;fillColor=#ADC3D9" parent="1" vertex="1">
          <mxGeometry x="86.5" y="380" width="40" height="20" as="geometry" />
        </mxCell>
        <mxCell id="64" value="测试" style="align=left;strokeColor=#DEEDFF;fillColor=#ADC3D9" parent="1" vertex="1">
          <mxGeometry x="126.5" y="380" width="320" height="20" as="geometry" />
        </mxCell>
        <mxCell id="65" value="5天" style="strokeColor=#DEEDFF;fillColor=#ADC3D9" parent="1" vertex="1">
          <mxGeometry x="446.50000000000176" y="380" width="80.00000000000028" height="20" as="geometry" />
        </mxCell>
        <mxCell id="66" value="2024/04/08" style="strokeColor=#DEEDFF;fillColor=#ADC3D9" parent="1" vertex="1">
          <mxGeometry x="526.500000000002" y="380" width="80.00000000000028" height="20" as="geometry" />
        </mxCell>
        <mxCell id="67" value="2024/04/12" style="strokeColor=#DEEDFF;fillColor=#ADC3D9" parent="1" vertex="1">
          <mxGeometry x="606.5000000000016" y="380.0000000000002" width="80.00000000000028" height="20" as="geometry" />
        </mxCell>
        <mxCell id="68" value="" style="strokeColor=#DEEDFF" parent="1" vertex="1">
          <mxGeometry x="686.5" y="380" width="20" height="100" as="geometry" />
        </mxCell>
        <mxCell id="69" value="2" style="strokeColor=#DEEDFF;fillColor=#CCE5FF" parent="1" vertex="1">
          <mxGeometry x="86.50000000000026" y="399.9999999999999" width="40" height="20" as="geometry" />
        </mxCell>
        <mxCell id="70" value="业务类型设计与显示、数据加载问题" style="align=left;strokeColor=#DEEDFF;fillColor=#CCE5FF" parent="1" vertex="1">
          <mxGeometry x="126.50000000000026" y="399.9999999999999" width="319.9999999999998" height="20" as="geometry" />
        </mxCell>
        <mxCell id="71" value="1天" style="strokeColor=#DEEDFF;fillColor=#CCE5FF" parent="1" vertex="1">
          <mxGeometry x="446.500000000002" y="399.99999999999983" width="80.00000000000028" height="20" as="geometry" />
        </mxCell>
        <mxCell id="72" value="2024/04/08" style="strokeColor=#DEEDFF;fillColor=#CCE5FF" parent="1" vertex="1">
          <mxGeometry x="526.5000000000023" y="399.99999999999983" width="80.00000000000028" height="20" as="geometry" />
        </mxCell>
        <mxCell id="73" value="2024/04/08" style="strokeColor=#DEEDFF;fillColor=#CCE5FF" parent="1" vertex="1">
          <mxGeometry x="606.5000000000018" y="400.0000000000001" width="80.00000000000028" height="20" as="geometry" />
        </mxCell>
        <mxCell id="74" value="3" style="strokeColor=#DEEDFF" parent="1" vertex="1">
          <mxGeometry x="86.50000000000027" y="419.9999999999998" width="40" height="20" as="geometry" />
        </mxCell>
        <mxCell id="75" value="" style="align=left;strokeColor=#DEEDFF" parent="1" vertex="1">
          <mxGeometry x="126.50000000000027" y="419.9999999999998" width="319.9999999999997" height="20.000000000000014" as="geometry" />
        </mxCell>
        <mxCell id="76" value="2天" style="strokeColor=#DEEDFF" parent="1" vertex="1">
          <mxGeometry x="446.500000000002" y="419.9999999999997" width="80.00000000000028" height="20" as="geometry" />
        </mxCell>
        <mxCell id="77" value="2024/04/09" style="strokeColor=#DEEDFF" parent="1" vertex="1">
          <mxGeometry x="526.5000000000023" y="419.9999999999997" width="80.00000000000028" height="20" as="geometry" />
        </mxCell>
        <mxCell id="78" value="2024/04/09" style="strokeColor=#DEEDFF" parent="1" vertex="1">
          <mxGeometry x="606.5000000000018" y="420" width="80.00000000000028" height="20" as="geometry" />
        </mxCell>
        <mxCell id="79" value="4" style="strokeColor=#DEEDFF" parent="1" vertex="1">
          <mxGeometry x="86.5" y="440.00000000000017" width="40" height="20" as="geometry" />
        </mxCell>
        <mxCell id="80" value="项目总监、项目经理角色下钻" style="align=left;strokeColor=#DEEDFF" parent="1" vertex="1">
          <mxGeometry x="126.5" y="420.00000000000017" width="320" height="20" as="geometry" />
        </mxCell>
        <mxCell id="81" value="3天" style="strokeColor=#DEEDFF" parent="1" vertex="1">
          <mxGeometry x="446.5000000000017" y="440.0000000000001" width="80.00000000000028" height="20" as="geometry" />
        </mxCell>
        <mxCell id="82" value="2024/04/10" style="strokeColor=#DEEDFF" parent="1" vertex="1">
          <mxGeometry x="526.500000000002" y="440.0000000000001" width="80.00000000000028" height="20" as="geometry" />
        </mxCell>
        <mxCell id="83" value="2024/04/11" style="strokeColor=#DEEDFF" parent="1" vertex="1">
          <mxGeometry x="606.5000000000015" y="440.0000000000004" width="80.00000000000028" height="20" as="geometry" />
        </mxCell>
        <mxCell id="84" value="5" style="strokeColor=#DEEDFF" parent="1" vertex="1">
          <mxGeometry x="86.49999999999991" y="460.00000000000017" width="40" height="20" as="geometry" />
        </mxCell>
        <mxCell id="85" value="学历标签、生产环境发布" style="align=left;strokeColor=#DEEDFF" parent="1" vertex="1">
          <mxGeometry x="126.49999999999991" y="460.00000000000017" width="320.0000000000001" height="20" as="geometry" />
        </mxCell>
        <mxCell id="86" value="1天" style="strokeColor=#DEEDFF" parent="1" vertex="1">
          <mxGeometry x="446.50000000000165" y="460.0000000000001" width="80.00000000000028" height="20" as="geometry" />
        </mxCell>
        <mxCell id="87" value="2024/04/12" style="strokeColor=#DEEDFF" parent="1" vertex="1">
          <mxGeometry x="526.5000000000019" y="460.0000000000001" width="80.00000000000028" height="20" as="geometry" />
        </mxCell>
        <mxCell id="88" value="2024/04/12" style="strokeColor=#DEEDFF" parent="1" vertex="1">
          <mxGeometry x="606.5000000000015" y="460.0000000000004" width="80.00000000000028" height="20" as="geometry" />
        </mxCell>
        <mxCell id="189" value="6" style="strokeColor=#DEEDFF" parent="1" vertex="1">
          <mxGeometry x="86.50000000000102" y="480.00000000000364" width="40" height="20" as="geometry" />
        </mxCell>
        <mxCell id="190" value="" style="align=left;strokeColor=#DEEDFF" parent="1" vertex="1">
          <mxGeometry x="126.500000000001" y="480.00000000000364" width="319.999999999999" height="20" as="geometry" />
        </mxCell>
        <mxCell id="191" value="" style="strokeColor=#DEEDFF" parent="1" vertex="1">
          <mxGeometry x="446.5000000000028" y="480.0000000000035" width="80.00000000000028" height="20" as="geometry" />
        </mxCell>
        <mxCell id="192" value="" style="strokeColor=#DEEDFF" parent="1" vertex="1">
          <mxGeometry x="526.5000000000031" y="480.0000000000035" width="80.00000000000028" height="20" as="geometry" />
        </mxCell>
        <mxCell id="193" value="" style="strokeColor=#DEEDFF" parent="1" vertex="1">
          <mxGeometry x="606.5000000000026" y="480.00000000000387" width="80.00000000000028" height="20" as="geometry" />
        </mxCell>
        <mxCell id="194" value="" style="strokeColor=#DEEDFF" parent="1" vertex="1">
          <mxGeometry x="706.5" y="380" width="20" height="100" as="geometry" />
        </mxCell>
        <mxCell id="195" value="" style="strokeColor=#DEEDFF" parent="1" vertex="1">
          <mxGeometry x="726.5" y="380" width="20" height="100" as="geometry" />
        </mxCell>
        <mxCell id="196" value="" style="strokeColor=#DEEDFF" parent="1" vertex="1">
          <mxGeometry x="746.5" y="380" width="20" height="100" as="geometry" />
        </mxCell>
        <mxCell id="197" value="" style="strokeColor=#DEEDFF" parent="1" vertex="1">
          <mxGeometry x="766.5" y="380" width="20" height="100" as="geometry" />
        </mxCell>
        <mxCell id="198" value="" style="strokeColor=#DEEDFF;fillColor=#D4E1FF" parent="1" vertex="1">
          <mxGeometry x="786.5" y="380" width="20" height="100" as="geometry" />
        </mxCell>
        <mxCell id="199" value="" style="strokeColor=#DEEDFF;fillColor=#D4E1FF" parent="1" vertex="1">
          <mxGeometry x="806.5" y="380" width="20" height="100" as="geometry" />
        </mxCell>
        <mxCell id="200" value="" style="strokeColor=#DEEDFF" parent="1" vertex="1">
          <mxGeometry x="826.5" y="380" width="20" height="100" as="geometry" />
        </mxCell>
        <mxCell id="201" value="" style="strokeColor=#DEEDFF" parent="1" vertex="1">
          <mxGeometry x="846.5" y="380" width="20" height="100" as="geometry" />
        </mxCell>
        <mxCell id="202" value="" style="strokeColor=#DEEDFF" parent="1" vertex="1">
          <mxGeometry x="866.5" y="380" width="20" height="100" as="geometry" />
        </mxCell>
        <mxCell id="203" value="" style="strokeColor=#DEEDFF" parent="1" vertex="1">
          <mxGeometry x="886.5" y="380" width="20" height="100" as="geometry" />
        </mxCell>
        <mxCell id="204" value="" style="strokeColor=#DEEDFF" parent="1" vertex="1">
          <mxGeometry x="906.5" y="380" width="20" height="100" as="geometry" />
        </mxCell>
        <mxCell id="205" value="" style="strokeColor=#DEEDFF;fillColor=#D4E1FF" parent="1" vertex="1">
          <mxGeometry x="926.5" y="380" width="20" height="100" as="geometry" />
        </mxCell>
        <mxCell id="206" value="" style="strokeColor=#DEEDFF;fillColor=#D4E1FF" parent="1" vertex="1">
          <mxGeometry x="946.5" y="380" width="20" height="100" as="geometry" />
        </mxCell>
        <mxCell id="207" value="" style="strokeColor=#DEEDFF" parent="1" vertex="1">
          <mxGeometry x="966.5" y="380" width="20" height="100" as="geometry" />
        </mxCell>
        <mxCell id="208" value="" style="strokeColor=#DEEDFF" parent="1" vertex="1">
          <mxGeometry x="986.5" y="380" width="20" height="100" as="geometry" />
        </mxCell>
        <mxCell id="209" value="" style="strokeColor=#DEEDFF" parent="1" vertex="1">
          <mxGeometry x="1006.5" y="380" width="20" height="100" as="geometry" />
        </mxCell>
        <mxCell id="210" value="" style="strokeColor=#DEEDFF" parent="1" vertex="1">
          <mxGeometry x="1026.5" y="380" width="20" height="100" as="geometry" />
        </mxCell>
        <mxCell id="211" value="" style="strokeColor=#DEEDFF" parent="1" vertex="1">
          <mxGeometry x="1046.5" y="380" width="20" height="90" as="geometry" />
        </mxCell>
        <mxCell id="212" value="" style="strokeColor=#DEEDFF;fillColor=#D4E1FF" parent="1" vertex="1">
          <mxGeometry x="1066.5" y="380" width="20" height="100" as="geometry" />
        </mxCell>
        <mxCell id="213" value="" style="strokeColor=#DEEDFF;fillColor=#D4E1FF" parent="1" vertex="1">
          <mxGeometry x="1086.5" y="380" width="20" height="100" as="geometry" />
        </mxCell>
        <mxCell id="214" value="" style="strokeColor=#DEEDFF" parent="1" vertex="1">
          <mxGeometry x="1106.5" y="380" width="20" height="100" as="geometry" />
        </mxCell>
        <mxCell id="215" value="" style="strokeColor=#DEEDFF" parent="1" vertex="1">
          <mxGeometry x="1126.5" y="380" width="20" height="100" as="geometry" />
        </mxCell>
        <mxCell id="216" value="" style="strokeColor=#DEEDFF" parent="1" vertex="1">
          <mxGeometry x="1146.5" y="380" width="20" height="100" as="geometry" />
        </mxCell>
        <mxCell id="217" value="" style="strokeColor=#DEEDFF" parent="1" vertex="1">
          <mxGeometry x="1166.5" y="380" width="20" height="100" as="geometry" />
        </mxCell>
        <mxCell id="218" value="" style="strokeColor=#DEEDFF" parent="1" vertex="1">
          <mxGeometry x="1186.5" y="380" width="20" height="100" as="geometry" />
        </mxCell>
        <mxCell id="219" value="" style="strokeColor=#DEEDFF;fillColor=#D4E1FF" parent="1" vertex="1">
          <mxGeometry x="1206.5" y="380" width="20" height="100" as="geometry" />
        </mxCell>
        <mxCell id="220" value="" style="strokeColor=#DEEDFF;fillColor=#D4E1FF" parent="1" vertex="1">
          <mxGeometry x="1226.5" y="380" width="20" height="100" as="geometry" />
        </mxCell>
        <mxCell id="221" value="" style="strokeColor=#DEEDFF" parent="1" vertex="1">
          <mxGeometry x="1246.500000000002" y="380.00000000002206" width="20" height="520" as="geometry" />
        </mxCell>
        <mxCell id="2" value="DCG员工数字画像" style="fillColor=#23445D;strokeColor=#FFFFFF;strokeWidth=2;fontColor=#FFFFFF;fontStyle=1" parent="1" vertex="1">
          <mxGeometry x="126.5" y="340" width="320" height="40" as="geometry" />
        </mxCell>
        <mxCell id="3" value="" style="fillColor=#23445D;strokeColor=#FFFFFF;strokeWidth=2;fontColor=#FFFFFF;fontStyle=1" parent="1" vertex="1">
          <mxGeometry x="86.5" y="340" width="40" height="40" as="geometry" />
        </mxCell>
        <mxCell id="4" value="08 4月 2024" style="fillColor=#23445D;strokeColor=#FFFFFF;strokeWidth=2;fontColor=#FFFFFF;fontStyle=1" parent="1" vertex="1">
          <mxGeometry x="686.5000000000018" y="340.0000000000001" width="140" height="20" as="geometry" />
        </mxCell>
        <mxCell id="5" value="1" style="fillColor=#23445D;strokeColor=#FFFFFF;strokeWidth=2;fontColor=#FFFFFF;fontStyle=1" parent="1" vertex="1">
          <mxGeometry x="686.5000000000018" y="360.0000000000001" width="20" height="20" as="geometry" />
        </mxCell>
        <mxCell id="6" value="2" style="fillColor=#23445D;strokeColor=#FFFFFF;strokeWidth=2;fontColor=#FFFFFF;fontStyle=1" parent="1" vertex="1">
          <mxGeometry x="706.5000000000018" y="360.0000000000001" width="20" height="20" as="geometry" />
        </mxCell>
        <mxCell id="7" value="3" style="fillColor=#23445D;strokeColor=#FFFFFF;strokeWidth=2;fontColor=#FFFFFF;fontStyle=1" parent="1" vertex="1">
          <mxGeometry x="726.5000000000018" y="360.0000000000001" width="20" height="20" as="geometry" />
        </mxCell>
        <mxCell id="8" value="4" style="fillColor=#23445D;strokeColor=#FFFFFF;strokeWidth=2;fontColor=#FFFFFF;fontStyle=1" parent="1" vertex="1">
          <mxGeometry x="746.5000000000018" y="360.0000000000001" width="20" height="20" as="geometry" />
        </mxCell>
        <mxCell id="9" value="5" style="fillColor=#23445D;strokeColor=#FFFFFF;strokeWidth=2;fontColor=#FFFFFF;fontStyle=1" parent="1" vertex="1">
          <mxGeometry x="766.5000000000016" y="360.0000000000001" width="20" height="20" as="geometry" />
        </mxCell>
        <mxCell id="10" value="6" style="fillColor=#23445D;strokeColor=#FFFFFF;strokeWidth=2;fontColor=#FFFFFF;fontStyle=1" parent="1" vertex="1">
          <mxGeometry x="786.5000000000016" y="360.0000000000001" width="20" height="20" as="geometry" />
        </mxCell>
        <mxCell id="11" value="7" style="fillColor=#23445D;strokeColor=#FFFFFF;strokeWidth=2;fontColor=#FFFFFF;fontStyle=1" parent="1" vertex="1">
          <mxGeometry x="806.5000000000016" y="360.0000000000001" width="20" height="20" as="geometry" />
        </mxCell>
        <mxCell id="12" value="持续时间 " style="fillColor=#23445D;strokeColor=#FFFFFF;strokeWidth=2;fontColor=#FFFFFF;fontStyle=1" parent="1" vertex="1">
          <mxGeometry x="446.50000000000176" y="340.00000000000006" width="80.00000000000006" height="40.00000000000001" as="geometry" />
        </mxCell>
        <mxCell id="13" value="开始" style="fillColor=#23445D;strokeColor=#FFFFFF;strokeWidth=2;fontColor=#FFFFFF;fontStyle=1" parent="1" vertex="1">
          <mxGeometry x="526.5000000000018" y="340.00000000000006" width="80.00000000000006" height="40.00000000000001" as="geometry" />
        </mxCell>
        <mxCell id="14" value="完成" style="fillColor=#23445D;strokeColor=#FFFFFF;strokeWidth=2;fontColor=#FFFFFF;fontStyle=1" parent="1" vertex="1">
          <mxGeometry x="606.5000000000019" y="340.0000000000001" width="80.00000000000006" height="40.00000000000001" as="geometry" />
        </mxCell>
        <mxCell id="15" value="15 4月 2024" style="fillColor=#23445D;strokeColor=#FFFFFF;strokeWidth=2;fontColor=#FFFFFF;fontStyle=1" parent="1" vertex="1">
          <mxGeometry x="826.5000000000018" y="340.0000000000001" width="140" height="20" as="geometry" />
        </mxCell>
        <mxCell id="16" value="1" style="fillColor=#23445D;strokeColor=#FFFFFF;strokeWidth=2;fontColor=#FFFFFF;fontStyle=1" parent="1" vertex="1">
          <mxGeometry x="826.5000000000018" y="360.0000000000001" width="20" height="20" as="geometry" />
        </mxCell>
        <mxCell id="17" value="2" style="fillColor=#23445D;strokeColor=#FFFFFF;strokeWidth=2;fontColor=#FFFFFF;fontStyle=1" parent="1" vertex="1">
          <mxGeometry x="846.5000000000018" y="360.0000000000001" width="20" height="20" as="geometry" />
        </mxCell>
        <mxCell id="18" value="3" style="fillColor=#23445D;strokeColor=#FFFFFF;strokeWidth=2;fontColor=#FFFFFF;fontStyle=1" parent="1" vertex="1">
          <mxGeometry x="866.5000000000018" y="360.0000000000001" width="20" height="20" as="geometry" />
        </mxCell>
        <mxCell id="19" value="4" style="fillColor=#23445D;strokeColor=#FFFFFF;strokeWidth=2;fontColor=#FFFFFF;fontStyle=1" parent="1" vertex="1">
          <mxGeometry x="886.5000000000018" y="360.0000000000001" width="20" height="20" as="geometry" />
        </mxCell>
        <mxCell id="20" value="5" style="fillColor=#23445D;strokeColor=#FFFFFF;strokeWidth=2;fontColor=#FFFFFF;fontStyle=1" parent="1" vertex="1">
          <mxGeometry x="906.5000000000016" y="360.0000000000001" width="20" height="20" as="geometry" />
        </mxCell>
        <mxCell id="21" value="6" style="fillColor=#23445D;strokeColor=#FFFFFF;strokeWidth=2;fontColor=#FFFFFF;fontStyle=1" parent="1" vertex="1">
          <mxGeometry x="926.5000000000016" y="360.0000000000001" width="20" height="20" as="geometry" />
        </mxCell>
        <mxCell id="22" value="7" style="fillColor=#23445D;strokeColor=#FFFFFF;strokeWidth=2;fontColor=#FFFFFF;fontStyle=1" parent="1" vertex="1">
          <mxGeometry x="946.5000000000016" y="360.0000000000001" width="20" height="20" as="geometry" />
        </mxCell>
        <mxCell id="23" value="22 4月 2024" style="fillColor=#23445D;strokeColor=#FFFFFF;strokeWidth=2;fontColor=#FFFFFF;fontStyle=1" parent="1" vertex="1">
          <mxGeometry x="966.5000000000018" y="340.00000000000006" width="140" height="20" as="geometry" />
        </mxCell>
        <mxCell id="24" value="1" style="fillColor=#23445D;strokeColor=#FFFFFF;strokeWidth=2;fontColor=#FFFFFF;fontStyle=1" parent="1" vertex="1">
          <mxGeometry x="966.5000000000018" y="360.00000000000006" width="20" height="20" as="geometry" />
        </mxCell>
        <mxCell id="25" value="2" style="fillColor=#23445D;strokeColor=#FFFFFF;strokeWidth=2;fontColor=#FFFFFF;fontStyle=1" parent="1" vertex="1">
          <mxGeometry x="986.5000000000018" y="360.00000000000006" width="20" height="20" as="geometry" />
        </mxCell>
        <mxCell id="26" value="3" style="fillColor=#23445D;strokeColor=#FFFFFF;strokeWidth=2;fontColor=#FFFFFF;fontStyle=1" parent="1" vertex="1">
          <mxGeometry x="1006.5000000000018" y="360.00000000000006" width="20" height="20" as="geometry" />
        </mxCell>
        <mxCell id="27" value="4" style="fillColor=#23445D;strokeColor=#FFFFFF;strokeWidth=2;fontColor=#FFFFFF;fontStyle=1" parent="1" vertex="1">
          <mxGeometry x="1026.5000000000018" y="360.00000000000006" width="20" height="20" as="geometry" />
        </mxCell>
        <mxCell id="28" value="5" style="fillColor=#23445D;strokeColor=#FFFFFF;strokeWidth=2;fontColor=#FFFFFF;fontStyle=1" parent="1" vertex="1">
          <mxGeometry x="1046.5000000000016" y="360.00000000000006" width="20" height="20" as="geometry" />
        </mxCell>
        <mxCell id="29" value="6" style="fillColor=#23445D;strokeColor=#FFFFFF;strokeWidth=2;fontColor=#FFFFFF;fontStyle=1" parent="1" vertex="1">
          <mxGeometry x="1066.5000000000016" y="360.00000000000006" width="20" height="20" as="geometry" />
        </mxCell>
        <mxCell id="30" value="7" style="fillColor=#23445D;strokeColor=#FFFFFF;strokeWidth=2;fontColor=#FFFFFF;fontStyle=1" parent="1" vertex="1">
          <mxGeometry x="1086.5000000000016" y="360.00000000000006" width="20" height="20" as="geometry" />
        </mxCell>
        <mxCell id="31" value="29 4月 2024" style="fillColor=#23445D;strokeColor=#FFFFFF;strokeWidth=2;fontColor=#FFFFFF;fontStyle=1" parent="1" vertex="1">
          <mxGeometry x="1106.5000000000018" y="340.00000000000006" width="140" height="20" as="geometry" />
        </mxCell>
        <mxCell id="32" value="1" style="fillColor=#23445D;strokeColor=#FFFFFF;strokeWidth=2;fontColor=#FFFFFF;fontStyle=1" parent="1" vertex="1">
          <mxGeometry x="1106.5000000000018" y="360.00000000000006" width="20" height="20" as="geometry" />
        </mxCell>
        <mxCell id="33" value="2" style="fillColor=#23445D;strokeColor=#FFFFFF;strokeWidth=2;fontColor=#FFFFFF;fontStyle=1" parent="1" vertex="1">
          <mxGeometry x="1126.5000000000018" y="360.00000000000006" width="20" height="20" as="geometry" />
        </mxCell>
        <mxCell id="34" value="3" style="fillColor=#23445D;strokeColor=#FFFFFF;strokeWidth=2;fontColor=#FFFFFF;fontStyle=1" parent="1" vertex="1">
          <mxGeometry x="1146.5000000000018" y="360.00000000000006" width="20" height="20" as="geometry" />
        </mxCell>
        <mxCell id="35" value="4" style="fillColor=#23445D;strokeColor=#FFFFFF;strokeWidth=2;fontColor=#FFFFFF;fontStyle=1" parent="1" vertex="1">
          <mxGeometry x="1166.5000000000018" y="360.00000000000006" width="20" height="20" as="geometry" />
        </mxCell>
        <mxCell id="36" value="5" style="fillColor=#23445D;strokeColor=#FFFFFF;strokeWidth=2;fontColor=#FFFFFF;fontStyle=1" parent="1" vertex="1">
          <mxGeometry x="1186.5000000000016" y="360" width="20" height="20" as="geometry" />
        </mxCell>
        <mxCell id="37" value="6" style="fillColor=#23445D;strokeColor=#FFFFFF;strokeWidth=2;fontColor=#FFFFFF;fontStyle=1" parent="1" vertex="1">
          <mxGeometry x="1206.5000000000016" y="360" width="20" height="20" as="geometry" />
        </mxCell>
        <mxCell id="38" value="7" style="fillColor=#23445D;strokeColor=#FFFFFF;strokeWidth=2;fontColor=#FFFFFF;fontStyle=1" parent="1" vertex="1">
          <mxGeometry x="1226.5000000000016" y="360" width="20" height="20" as="geometry" />
        </mxCell>
        <mxCell id="242" value="" style="shape=mxgraph.flowchart.process;fillColor=#008a00;strokeColor=#005700;strokeWidth=2;opacity=50;fontColor=#ffffff;" parent="1" vertex="1">
          <mxGeometry x="686.5" y="380" width="103.5" height="20" as="geometry" />
        </mxCell>
        <mxCell id="243" value="" style="shape=mxgraph.arrows.bent_right_arrow;fillColor=#AE4132;strokeColor=none;strokeWidth=2;direction=south" parent="1" vertex="1">
          <mxGeometry x="706.500000000002" y="409.99999999999966" width="10.000000000000341" height="9.99999999999983" as="geometry" />
        </mxCell>
        <mxCell id="245" value="" style="shape=mxgraph.flowchart.process;fillColor=#AE4132;strokeColor=none;strokeWidth=2;opacity=50" parent="1" vertex="1">
          <mxGeometry x="686.5" y="420" width="40" height="20" as="geometry" />
        </mxCell>
        <mxCell id="246" value="" style="shape=mxgraph.flowchart.process;fillColor=#AE4132;strokeColor=none;strokeWidth=2;opacity=50" parent="1" vertex="1">
          <mxGeometry x="706.5" y="440" width="60" height="20" as="geometry" />
        </mxCell>
        <mxCell id="249" value="" style="shape=mxgraph.arrows.bent_right_arrow;fillColor=#AE4132;strokeColor=none;strokeWidth=2;direction=south" parent="1" vertex="1">
          <mxGeometry x="726.500000000001" y="429.99999999999943" width="10.000000000000341" height="9.99999999999983" as="geometry" />
        </mxCell>
        <mxCell id="253" value="" style="shape=mxgraph.arrows.bent_right_arrow;fillColor=#AE4132;strokeColor=none;strokeWidth=2;direction=south" parent="1" vertex="1">
          <mxGeometry x="766.500000000002" y="449.99999999999983" width="10.000000000000341" height="9.99999999999983" as="geometry" />
        </mxCell>
        <mxCell id="ncZGdhDgcL0KRMbdCMBL-281" value="" style="shape=mxgraph.flowchart.process;fillColor=#AE4132;strokeColor=none;strokeWidth=2;opacity=50" parent="1" vertex="1">
          <mxGeometry x="686.5000000000032" y="399.9999999999997" width="19.999999999998863" height="19.99999999999983" as="geometry" />
        </mxCell>
        <mxCell id="ncZGdhDgcL0KRMbdCMBL-282" value="" style="shape=mxgraph.flowchart.process;fillColor=#AE4132;strokeColor=none;strokeWidth=2;opacity=50" parent="1" vertex="1">
          <mxGeometry x="766.5000000000032" y="459.9999999999997" width="19.999999999998863" height="19.99999999999983" as="geometry" />
        </mxCell>
        <mxCell id="ncZGdhDgcL0KRMbdCMBL-283" value="问卷调查、生成二维码" style="align=left;strokeColor=#DEEDFF" parent="1" vertex="1">
          <mxGeometry x="126.5" y="440.00000000000017" width="320" height="20" as="geometry" />
        </mxCell>
        <mxCell id="iAju_3nY3JwR_g3rggPn-278" value="1" style="strokeColor=#DEEDFF;fillColor=#ADC3D9" vertex="1" parent="1">
          <mxGeometry x="86.5" y="780" width="40" height="20" as="geometry" />
        </mxCell>
        <mxCell id="iAju_3nY3JwR_g3rggPn-279" value="新商机工作量评估" style="align=left;strokeColor=#DEEDFF;fillColor=#ADC3D9" vertex="1" parent="1">
          <mxGeometry x="126.5" y="780" width="320" height="20" as="geometry" />
        </mxCell>
        <mxCell id="iAju_3nY3JwR_g3rggPn-280" value="1天" style="strokeColor=#DEEDFF;fillColor=#ADC3D9" vertex="1" parent="1">
          <mxGeometry x="446.50000000000176" y="780" width="80.00000000000028" height="20" as="geometry" />
        </mxCell>
        <mxCell id="iAju_3nY3JwR_g3rggPn-281" value="2024/04/15" style="strokeColor=#DEEDFF;fillColor=#ADC3D9" vertex="1" parent="1">
          <mxGeometry x="526.500000000002" y="780" width="80.00000000000028" height="20" as="geometry" />
        </mxCell>
        <mxCell id="iAju_3nY3JwR_g3rggPn-282" value="2024/04/15" style="strokeColor=#DEEDFF;fillColor=#ADC3D9" vertex="1" parent="1">
          <mxGeometry x="606.5" y="780" width="80" height="20" as="geometry" />
        </mxCell>
        <mxCell id="iAju_3nY3JwR_g3rggPn-283" value="" style="strokeColor=#DEEDFF" vertex="1" parent="1">
          <mxGeometry x="686.5" y="780" width="20" height="100" as="geometry" />
        </mxCell>
        <mxCell id="iAju_3nY3JwR_g3rggPn-284" value="2" style="strokeColor=#DEEDFF;fillColor=#CCE5FF" vertex="1" parent="1">
          <mxGeometry x="86.50000000000026" y="799.9999999999999" width="40" height="20" as="geometry" />
        </mxCell>
        <mxCell id="iAju_3nY3JwR_g3rggPn-285" value="埋点逻辑修改、生产bug修复" style="align=left;strokeColor=#DEEDFF;fillColor=#CCE5FF" vertex="1" parent="1">
          <mxGeometry x="126.50000000000026" y="799.9999999999999" width="319.9999999999998" height="20" as="geometry" />
        </mxCell>
        <mxCell id="iAju_3nY3JwR_g3rggPn-286" value="1天" style="strokeColor=#DEEDFF;fillColor=#CCE5FF" vertex="1" parent="1">
          <mxGeometry x="446.500000000002" y="799.9999999999998" width="80.00000000000028" height="20" as="geometry" />
        </mxCell>
        <mxCell id="iAju_3nY3JwR_g3rggPn-287" value="2024/04/16" style="strokeColor=#DEEDFF;fillColor=#CCE5FF" vertex="1" parent="1">
          <mxGeometry x="526.5000000000023" y="799.9999999999998" width="80.00000000000028" height="20" as="geometry" />
        </mxCell>
        <mxCell id="iAju_3nY3JwR_g3rggPn-288" value="2024/04/16" style="strokeColor=#DEEDFF;fillColor=#CCE5FF" vertex="1" parent="1">
          <mxGeometry x="606.5000000000018" y="800.0000000000001" width="80.00000000000028" height="20" as="geometry" />
        </mxCell>
        <mxCell id="iAju_3nY3JwR_g3rggPn-289" value="3" style="strokeColor=#DEEDFF" vertex="1" parent="1">
          <mxGeometry x="86.50000000000027" y="819.9999999999998" width="40" height="20" as="geometry" />
        </mxCell>
        <mxCell id="iAju_3nY3JwR_g3rggPn-290" value="" style="align=left;strokeColor=#DEEDFF" vertex="1" parent="1">
          <mxGeometry x="126.50000000000028" y="819.9999999999998" width="319.9999999999997" height="20.000000000000014" as="geometry" />
        </mxCell>
        <mxCell id="iAju_3nY3JwR_g3rggPn-291" value="2天" style="strokeColor=#DEEDFF" vertex="1" parent="1">
          <mxGeometry x="446.500000000002" y="819.9999999999998" width="80.00000000000028" height="20" as="geometry" />
        </mxCell>
        <mxCell id="iAju_3nY3JwR_g3rggPn-292" value="2024/04/09" style="strokeColor=#DEEDFF" vertex="1" parent="1">
          <mxGeometry x="526.5000000000023" y="819.9999999999998" width="80.00000000000028" height="20" as="geometry" />
        </mxCell>
        <mxCell id="iAju_3nY3JwR_g3rggPn-293" value="2024/04/09" style="strokeColor=#DEEDFF" vertex="1" parent="1">
          <mxGeometry x="606.5000000000018" y="820" width="80.00000000000028" height="20" as="geometry" />
        </mxCell>
        <mxCell id="iAju_3nY3JwR_g3rggPn-294" value="4" style="strokeColor=#DEEDFF" vertex="1" parent="1">
          <mxGeometry x="86.5" y="840.0000000000002" width="40" height="20" as="geometry" />
        </mxCell>
        <mxCell id="iAju_3nY3JwR_g3rggPn-295" value="项目总监、项目经理角色下钻" style="align=left;strokeColor=#DEEDFF" vertex="1" parent="1">
          <mxGeometry x="126.5" y="820.0000000000002" width="320" height="20" as="geometry" />
        </mxCell>
        <mxCell id="iAju_3nY3JwR_g3rggPn-296" value="3天" style="strokeColor=#DEEDFF" vertex="1" parent="1">
          <mxGeometry x="446.5000000000017" y="840.0000000000001" width="80.00000000000028" height="20" as="geometry" />
        </mxCell>
        <mxCell id="iAju_3nY3JwR_g3rggPn-297" value="2024/04/10" style="strokeColor=#DEEDFF" vertex="1" parent="1">
          <mxGeometry x="526.500000000002" y="840.0000000000001" width="80.00000000000028" height="20" as="geometry" />
        </mxCell>
        <mxCell id="iAju_3nY3JwR_g3rggPn-298" value="2024/04/11" style="strokeColor=#DEEDFF" vertex="1" parent="1">
          <mxGeometry x="606.5000000000015" y="840.0000000000005" width="80.00000000000028" height="20" as="geometry" />
        </mxCell>
        <mxCell id="iAju_3nY3JwR_g3rggPn-299" value="5" style="strokeColor=#DEEDFF" vertex="1" parent="1">
          <mxGeometry x="86.49999999999991" y="860.0000000000002" width="40" height="20" as="geometry" />
        </mxCell>
        <mxCell id="iAju_3nY3JwR_g3rggPn-300" value="学历标签、生产环境发布" style="align=left;strokeColor=#DEEDFF" vertex="1" parent="1">
          <mxGeometry x="126.49999999999991" y="860.0000000000002" width="320.0000000000001" height="20" as="geometry" />
        </mxCell>
        <mxCell id="iAju_3nY3JwR_g3rggPn-301" value="1天" style="strokeColor=#DEEDFF" vertex="1" parent="1">
          <mxGeometry x="446.50000000000165" y="860.0000000000001" width="80.00000000000028" height="20" as="geometry" />
        </mxCell>
        <mxCell id="iAju_3nY3JwR_g3rggPn-302" value="2024/04/12" style="strokeColor=#DEEDFF" vertex="1" parent="1">
          <mxGeometry x="526.5000000000019" y="860.0000000000001" width="80.00000000000028" height="20" as="geometry" />
        </mxCell>
        <mxCell id="iAju_3nY3JwR_g3rggPn-303" value="2024/04/12" style="strokeColor=#DEEDFF" vertex="1" parent="1">
          <mxGeometry x="606.5000000000015" y="860.0000000000005" width="80.00000000000028" height="20" as="geometry" />
        </mxCell>
        <mxCell id="iAju_3nY3JwR_g3rggPn-304" value="" style="strokeColor=#DEEDFF" vertex="1" parent="1">
          <mxGeometry x="706.5" y="780" width="20" height="100" as="geometry" />
        </mxCell>
        <mxCell id="iAju_3nY3JwR_g3rggPn-305" value="" style="strokeColor=#DEEDFF" vertex="1" parent="1">
          <mxGeometry x="726.5" y="780" width="20" height="100" as="geometry" />
        </mxCell>
        <mxCell id="iAju_3nY3JwR_g3rggPn-306" value="" style="strokeColor=#DEEDFF" vertex="1" parent="1">
          <mxGeometry x="746.5" y="780" width="20" height="100" as="geometry" />
        </mxCell>
        <mxCell id="iAju_3nY3JwR_g3rggPn-307" value="" style="strokeColor=#DEEDFF" vertex="1" parent="1">
          <mxGeometry x="766.5" y="780" width="20" height="100" as="geometry" />
        </mxCell>
        <mxCell id="iAju_3nY3JwR_g3rggPn-308" value="" style="strokeColor=#DEEDFF;fillColor=#D4E1FF" vertex="1" parent="1">
          <mxGeometry x="786.5" y="780" width="20" height="100" as="geometry" />
        </mxCell>
        <mxCell id="iAju_3nY3JwR_g3rggPn-309" value="" style="strokeColor=#DEEDFF;fillColor=#D4E1FF" vertex="1" parent="1">
          <mxGeometry x="806.5" y="780" width="20" height="100" as="geometry" />
        </mxCell>
        <mxCell id="iAju_3nY3JwR_g3rggPn-310" value="" style="strokeColor=#DEEDFF" vertex="1" parent="1">
          <mxGeometry x="826.5" y="780" width="20" height="100" as="geometry" />
        </mxCell>
        <mxCell id="iAju_3nY3JwR_g3rggPn-311" value="" style="strokeColor=#DEEDFF" vertex="1" parent="1">
          <mxGeometry x="846.5" y="780" width="20" height="100" as="geometry" />
        </mxCell>
        <mxCell id="iAju_3nY3JwR_g3rggPn-312" value="" style="strokeColor=#DEEDFF" vertex="1" parent="1">
          <mxGeometry x="866.5" y="780" width="20" height="100" as="geometry" />
        </mxCell>
        <mxCell id="iAju_3nY3JwR_g3rggPn-313" value="" style="strokeColor=#DEEDFF" vertex="1" parent="1">
          <mxGeometry x="886.5" y="780" width="20" height="100" as="geometry" />
        </mxCell>
        <mxCell id="iAju_3nY3JwR_g3rggPn-314" value="" style="strokeColor=#DEEDFF" vertex="1" parent="1">
          <mxGeometry x="906.5" y="780" width="20" height="100" as="geometry" />
        </mxCell>
        <mxCell id="iAju_3nY3JwR_g3rggPn-315" value="" style="strokeColor=#DEEDFF;fillColor=#D4E1FF" vertex="1" parent="1">
          <mxGeometry x="926.5" y="780" width="20" height="100" as="geometry" />
        </mxCell>
        <mxCell id="iAju_3nY3JwR_g3rggPn-316" value="" style="strokeColor=#DEEDFF;fillColor=#D4E1FF" vertex="1" parent="1">
          <mxGeometry x="946.5" y="780" width="20" height="100" as="geometry" />
        </mxCell>
        <mxCell id="iAju_3nY3JwR_g3rggPn-317" value="" style="strokeColor=#DEEDFF" vertex="1" parent="1">
          <mxGeometry x="966.5" y="780" width="20" height="100" as="geometry" />
        </mxCell>
        <mxCell id="iAju_3nY3JwR_g3rggPn-318" value="" style="strokeColor=#DEEDFF" vertex="1" parent="1">
          <mxGeometry x="986.5" y="780" width="20" height="100" as="geometry" />
        </mxCell>
        <mxCell id="iAju_3nY3JwR_g3rggPn-319" value="" style="strokeColor=#DEEDFF" vertex="1" parent="1">
          <mxGeometry x="1006.5" y="780" width="20" height="100" as="geometry" />
        </mxCell>
        <mxCell id="iAju_3nY3JwR_g3rggPn-320" value="" style="strokeColor=#DEEDFF" vertex="1" parent="1">
          <mxGeometry x="1026.5" y="780" width="20" height="100" as="geometry" />
        </mxCell>
        <mxCell id="iAju_3nY3JwR_g3rggPn-321" value="" style="strokeColor=#DEEDFF" vertex="1" parent="1">
          <mxGeometry x="1046.5" y="780" width="20" height="90" as="geometry" />
        </mxCell>
        <mxCell id="iAju_3nY3JwR_g3rggPn-322" value="" style="strokeColor=#DEEDFF;fillColor=#D4E1FF" vertex="1" parent="1">
          <mxGeometry x="1066.5" y="780" width="20" height="100" as="geometry" />
        </mxCell>
        <mxCell id="iAju_3nY3JwR_g3rggPn-323" value="" style="strokeColor=#DEEDFF;fillColor=#D4E1FF" vertex="1" parent="1">
          <mxGeometry x="1086.5" y="780" width="20" height="100" as="geometry" />
        </mxCell>
        <mxCell id="iAju_3nY3JwR_g3rggPn-324" value="" style="strokeColor=#DEEDFF" vertex="1" parent="1">
          <mxGeometry x="1106.5" y="780" width="20" height="100" as="geometry" />
        </mxCell>
        <mxCell id="iAju_3nY3JwR_g3rggPn-325" value="" style="strokeColor=#DEEDFF" vertex="1" parent="1">
          <mxGeometry x="1126.5" y="780" width="20" height="100" as="geometry" />
        </mxCell>
        <mxCell id="iAju_3nY3JwR_g3rggPn-326" value="" style="strokeColor=#DEEDFF" vertex="1" parent="1">
          <mxGeometry x="1146.5" y="780" width="20" height="100" as="geometry" />
        </mxCell>
        <mxCell id="iAju_3nY3JwR_g3rggPn-327" value="" style="strokeColor=#DEEDFF" vertex="1" parent="1">
          <mxGeometry x="1166.5" y="780" width="20" height="100" as="geometry" />
        </mxCell>
        <mxCell id="iAju_3nY3JwR_g3rggPn-328" value="" style="strokeColor=#DEEDFF" vertex="1" parent="1">
          <mxGeometry x="1186.5" y="780" width="20" height="100" as="geometry" />
        </mxCell>
        <mxCell id="iAju_3nY3JwR_g3rggPn-329" value="" style="strokeColor=#DEEDFF;fillColor=#D4E1FF" vertex="1" parent="1">
          <mxGeometry x="1206.5" y="780" width="20" height="100" as="geometry" />
        </mxCell>
        <mxCell id="iAju_3nY3JwR_g3rggPn-330" value="" style="strokeColor=#DEEDFF;fillColor=#D4E1FF" vertex="1" parent="1">
          <mxGeometry x="1226.5" y="780" width="20" height="100" as="geometry" />
        </mxCell>
        <mxCell id="iAju_3nY3JwR_g3rggPn-331" value="DCG员工数字画像" style="fillColor=#23445D;strokeColor=#FFFFFF;strokeWidth=2;fontColor=#FFFFFF;fontStyle=1" vertex="1" parent="1">
          <mxGeometry x="126.5" y="740" width="320" height="40" as="geometry" />
        </mxCell>
        <mxCell id="iAju_3nY3JwR_g3rggPn-332" value="" style="fillColor=#23445D;strokeColor=#FFFFFF;strokeWidth=2;fontColor=#FFFFFF;fontStyle=1" vertex="1" parent="1">
          <mxGeometry x="86.5" y="740" width="40" height="40" as="geometry" />
        </mxCell>
        <mxCell id="iAju_3nY3JwR_g3rggPn-333" value="08 4月 2024" style="fillColor=#23445D;strokeColor=#FFFFFF;strokeWidth=2;fontColor=#FFFFFF;fontStyle=1" vertex="1" parent="1">
          <mxGeometry x="686.5000000000018" y="740.0000000000001" width="140" height="20" as="geometry" />
        </mxCell>
        <mxCell id="iAju_3nY3JwR_g3rggPn-334" value="1" style="fillColor=#23445D;strokeColor=#FFFFFF;strokeWidth=2;fontColor=#FFFFFF;fontStyle=1" vertex="1" parent="1">
          <mxGeometry x="686.5000000000018" y="760.0000000000001" width="20" height="20" as="geometry" />
        </mxCell>
        <mxCell id="iAju_3nY3JwR_g3rggPn-335" value="2" style="fillColor=#23445D;strokeColor=#FFFFFF;strokeWidth=2;fontColor=#FFFFFF;fontStyle=1" vertex="1" parent="1">
          <mxGeometry x="706.5000000000018" y="760.0000000000001" width="20" height="20" as="geometry" />
        </mxCell>
        <mxCell id="iAju_3nY3JwR_g3rggPn-336" value="3" style="fillColor=#23445D;strokeColor=#FFFFFF;strokeWidth=2;fontColor=#FFFFFF;fontStyle=1" vertex="1" parent="1">
          <mxGeometry x="726.5000000000018" y="760.0000000000001" width="20" height="20" as="geometry" />
        </mxCell>
        <mxCell id="iAju_3nY3JwR_g3rggPn-337" value="4" style="fillColor=#23445D;strokeColor=#FFFFFF;strokeWidth=2;fontColor=#FFFFFF;fontStyle=1" vertex="1" parent="1">
          <mxGeometry x="746.5000000000018" y="760.0000000000001" width="20" height="20" as="geometry" />
        </mxCell>
        <mxCell id="iAju_3nY3JwR_g3rggPn-338" value="5" style="fillColor=#23445D;strokeColor=#FFFFFF;strokeWidth=2;fontColor=#FFFFFF;fontStyle=1" vertex="1" parent="1">
          <mxGeometry x="766.5000000000016" y="760.0000000000001" width="20" height="20" as="geometry" />
        </mxCell>
        <mxCell id="iAju_3nY3JwR_g3rggPn-339" value="6" style="fillColor=#23445D;strokeColor=#FFFFFF;strokeWidth=2;fontColor=#FFFFFF;fontStyle=1" vertex="1" parent="1">
          <mxGeometry x="786.5000000000016" y="760.0000000000001" width="20" height="20" as="geometry" />
        </mxCell>
        <mxCell id="iAju_3nY3JwR_g3rggPn-340" value="7" style="fillColor=#23445D;strokeColor=#FFFFFF;strokeWidth=2;fontColor=#FFFFFF;fontStyle=1" vertex="1" parent="1">
          <mxGeometry x="806.5000000000016" y="760.0000000000001" width="20" height="20" as="geometry" />
        </mxCell>
        <mxCell id="iAju_3nY3JwR_g3rggPn-341" value="持续时间 " style="fillColor=#23445D;strokeColor=#FFFFFF;strokeWidth=2;fontColor=#FFFFFF;fontStyle=1" vertex="1" parent="1">
          <mxGeometry x="446.50000000000176" y="740" width="80.00000000000006" height="40.00000000000001" as="geometry" />
        </mxCell>
        <mxCell id="iAju_3nY3JwR_g3rggPn-342" value="开始" style="fillColor=#23445D;strokeColor=#FFFFFF;strokeWidth=2;fontColor=#FFFFFF;fontStyle=1" vertex="1" parent="1">
          <mxGeometry x="526.5000000000018" y="740" width="80.00000000000006" height="40.00000000000001" as="geometry" />
        </mxCell>
        <mxCell id="iAju_3nY3JwR_g3rggPn-343" value="完成" style="fillColor=#23445D;strokeColor=#FFFFFF;strokeWidth=2;fontColor=#FFFFFF;fontStyle=1" vertex="1" parent="1">
          <mxGeometry x="606.5000000000019" y="740.0000000000001" width="80.00000000000006" height="40.00000000000001" as="geometry" />
        </mxCell>
        <mxCell id="iAju_3nY3JwR_g3rggPn-344" value="15 4月 2024" style="fillColor=#23445D;strokeColor=#FFFFFF;strokeWidth=2;fontColor=#FFFFFF;fontStyle=1" vertex="1" parent="1">
          <mxGeometry x="826.5000000000018" y="740.0000000000001" width="140" height="20" as="geometry" />
        </mxCell>
        <mxCell id="iAju_3nY3JwR_g3rggPn-345" value="1" style="fillColor=#23445D;strokeColor=#FFFFFF;strokeWidth=2;fontColor=#FFFFFF;fontStyle=1" vertex="1" parent="1">
          <mxGeometry x="826.5000000000018" y="760.0000000000001" width="20" height="20" as="geometry" />
        </mxCell>
        <mxCell id="iAju_3nY3JwR_g3rggPn-346" value="2" style="fillColor=#23445D;strokeColor=#FFFFFF;strokeWidth=2;fontColor=#FFFFFF;fontStyle=1" vertex="1" parent="1">
          <mxGeometry x="846.5000000000018" y="760.0000000000001" width="20" height="20" as="geometry" />
        </mxCell>
        <mxCell id="iAju_3nY3JwR_g3rggPn-347" value="3" style="fillColor=#23445D;strokeColor=#FFFFFF;strokeWidth=2;fontColor=#FFFFFF;fontStyle=1" vertex="1" parent="1">
          <mxGeometry x="866.5000000000018" y="760.0000000000001" width="20" height="20" as="geometry" />
        </mxCell>
        <mxCell id="iAju_3nY3JwR_g3rggPn-348" value="4" style="fillColor=#23445D;strokeColor=#FFFFFF;strokeWidth=2;fontColor=#FFFFFF;fontStyle=1" vertex="1" parent="1">
          <mxGeometry x="886.5000000000018" y="760.0000000000001" width="20" height="20" as="geometry" />
        </mxCell>
        <mxCell id="iAju_3nY3JwR_g3rggPn-349" value="5" style="fillColor=#23445D;strokeColor=#FFFFFF;strokeWidth=2;fontColor=#FFFFFF;fontStyle=1" vertex="1" parent="1">
          <mxGeometry x="906.5000000000016" y="760.0000000000001" width="20" height="20" as="geometry" />
        </mxCell>
        <mxCell id="iAju_3nY3JwR_g3rggPn-350" value="6" style="fillColor=#23445D;strokeColor=#FFFFFF;strokeWidth=2;fontColor=#FFFFFF;fontStyle=1" vertex="1" parent="1">
          <mxGeometry x="926.5000000000016" y="760.0000000000001" width="20" height="20" as="geometry" />
        </mxCell>
        <mxCell id="iAju_3nY3JwR_g3rggPn-351" value="7" style="fillColor=#23445D;strokeColor=#FFFFFF;strokeWidth=2;fontColor=#FFFFFF;fontStyle=1" vertex="1" parent="1">
          <mxGeometry x="946.5000000000016" y="760.0000000000001" width="20" height="20" as="geometry" />
        </mxCell>
        <mxCell id="iAju_3nY3JwR_g3rggPn-352" value="22 4月 2024" style="fillColor=#23445D;strokeColor=#FFFFFF;strokeWidth=2;fontColor=#FFFFFF;fontStyle=1" vertex="1" parent="1">
          <mxGeometry x="966.5000000000018" y="740" width="140" height="20" as="geometry" />
        </mxCell>
        <mxCell id="iAju_3nY3JwR_g3rggPn-353" value="1" style="fillColor=#23445D;strokeColor=#FFFFFF;strokeWidth=2;fontColor=#FFFFFF;fontStyle=1" vertex="1" parent="1">
          <mxGeometry x="966.5000000000018" y="760" width="20" height="20" as="geometry" />
        </mxCell>
        <mxCell id="iAju_3nY3JwR_g3rggPn-354" value="2" style="fillColor=#23445D;strokeColor=#FFFFFF;strokeWidth=2;fontColor=#FFFFFF;fontStyle=1" vertex="1" parent="1">
          <mxGeometry x="986.5000000000018" y="760" width="20" height="20" as="geometry" />
        </mxCell>
        <mxCell id="iAju_3nY3JwR_g3rggPn-355" value="3" style="fillColor=#23445D;strokeColor=#FFFFFF;strokeWidth=2;fontColor=#FFFFFF;fontStyle=1" vertex="1" parent="1">
          <mxGeometry x="1006.5000000000018" y="760" width="20" height="20" as="geometry" />
        </mxCell>
        <mxCell id="iAju_3nY3JwR_g3rggPn-356" value="4" style="fillColor=#23445D;strokeColor=#FFFFFF;strokeWidth=2;fontColor=#FFFFFF;fontStyle=1" vertex="1" parent="1">
          <mxGeometry x="1026.5000000000018" y="760" width="20" height="20" as="geometry" />
        </mxCell>
        <mxCell id="iAju_3nY3JwR_g3rggPn-357" value="5" style="fillColor=#23445D;strokeColor=#FFFFFF;strokeWidth=2;fontColor=#FFFFFF;fontStyle=1" vertex="1" parent="1">
          <mxGeometry x="1046.5000000000016" y="760" width="20" height="20" as="geometry" />
        </mxCell>
        <mxCell id="iAju_3nY3JwR_g3rggPn-358" value="6" style="fillColor=#23445D;strokeColor=#FFFFFF;strokeWidth=2;fontColor=#FFFFFF;fontStyle=1" vertex="1" parent="1">
          <mxGeometry x="1066.5000000000016" y="760" width="20" height="20" as="geometry" />
        </mxCell>
        <mxCell id="iAju_3nY3JwR_g3rggPn-359" value="7" style="fillColor=#23445D;strokeColor=#FFFFFF;strokeWidth=2;fontColor=#FFFFFF;fontStyle=1" vertex="1" parent="1">
          <mxGeometry x="1086.5000000000016" y="760" width="20" height="20" as="geometry" />
        </mxCell>
        <mxCell id="iAju_3nY3JwR_g3rggPn-360" value="29 4月 2024" style="fillColor=#23445D;strokeColor=#FFFFFF;strokeWidth=2;fontColor=#FFFFFF;fontStyle=1" vertex="1" parent="1">
          <mxGeometry x="1106.5000000000018" y="740" width="140" height="20" as="geometry" />
        </mxCell>
        <mxCell id="iAju_3nY3JwR_g3rggPn-361" value="1" style="fillColor=#23445D;strokeColor=#FFFFFF;strokeWidth=2;fontColor=#FFFFFF;fontStyle=1" vertex="1" parent="1">
          <mxGeometry x="1106.5000000000018" y="760" width="20" height="20" as="geometry" />
        </mxCell>
        <mxCell id="iAju_3nY3JwR_g3rggPn-362" value="2" style="fillColor=#23445D;strokeColor=#FFFFFF;strokeWidth=2;fontColor=#FFFFFF;fontStyle=1" vertex="1" parent="1">
          <mxGeometry x="1126.5000000000018" y="760" width="20" height="20" as="geometry" />
        </mxCell>
        <mxCell id="iAju_3nY3JwR_g3rggPn-363" value="3" style="fillColor=#23445D;strokeColor=#FFFFFF;strokeWidth=2;fontColor=#FFFFFF;fontStyle=1" vertex="1" parent="1">
          <mxGeometry x="1146.5000000000018" y="760" width="20" height="20" as="geometry" />
        </mxCell>
        <mxCell id="iAju_3nY3JwR_g3rggPn-364" value="4" style="fillColor=#23445D;strokeColor=#FFFFFF;strokeWidth=2;fontColor=#FFFFFF;fontStyle=1" vertex="1" parent="1">
          <mxGeometry x="1166.5000000000018" y="760" width="20" height="20" as="geometry" />
        </mxCell>
        <mxCell id="iAju_3nY3JwR_g3rggPn-365" value="5" style="fillColor=#23445D;strokeColor=#FFFFFF;strokeWidth=2;fontColor=#FFFFFF;fontStyle=1" vertex="1" parent="1">
          <mxGeometry x="1186.5000000000016" y="760" width="20" height="20" as="geometry" />
        </mxCell>
        <mxCell id="iAju_3nY3JwR_g3rggPn-366" value="6" style="fillColor=#23445D;strokeColor=#FFFFFF;strokeWidth=2;fontColor=#FFFFFF;fontStyle=1" vertex="1" parent="1">
          <mxGeometry x="1206.5000000000016" y="760" width="20" height="20" as="geometry" />
        </mxCell>
        <mxCell id="iAju_3nY3JwR_g3rggPn-367" value="7" style="fillColor=#23445D;strokeColor=#FFFFFF;strokeWidth=2;fontColor=#FFFFFF;fontStyle=1" vertex="1" parent="1">
          <mxGeometry x="1226.5000000000016" y="760" width="20" height="20" as="geometry" />
        </mxCell>
        <mxCell id="iAju_3nY3JwR_g3rggPn-369" value="" style="shape=mxgraph.arrows.bent_right_arrow;fillColor=#AE4132;strokeColor=none;strokeWidth=2;direction=south" vertex="1" parent="1">
          <mxGeometry x="726.5" y="805" width="10" height="10" as="geometry" />
        </mxCell>
        <mxCell id="iAju_3nY3JwR_g3rggPn-370" value="" style="shape=mxgraph.flowchart.process;fillColor=#AE4132;strokeColor=none;strokeWidth=2;opacity=50" vertex="1" parent="1">
          <mxGeometry x="686.5" y="820" width="40" height="20" as="geometry" />
        </mxCell>
        <mxCell id="iAju_3nY3JwR_g3rggPn-371" value="" style="shape=mxgraph.flowchart.process;fillColor=#AE4132;strokeColor=none;strokeWidth=2;opacity=50" vertex="1" parent="1">
          <mxGeometry x="706.5" y="840" width="60" height="20" as="geometry" />
        </mxCell>
        <mxCell id="iAju_3nY3JwR_g3rggPn-372" value="" style="shape=mxgraph.arrows.bent_right_arrow;fillColor=#AE4132;strokeColor=none;strokeWidth=2;direction=south" vertex="1" parent="1">
          <mxGeometry x="726.500000000001" y="829.9999999999994" width="10.000000000000341" height="9.99999999999983" as="geometry" />
        </mxCell>
        <mxCell id="iAju_3nY3JwR_g3rggPn-373" value="" style="shape=mxgraph.arrows.bent_right_arrow;fillColor=#AE4132;strokeColor=none;strokeWidth=2;direction=south" vertex="1" parent="1">
          <mxGeometry x="766.500000000002" y="849.9999999999998" width="10.000000000000341" height="9.99999999999983" as="geometry" />
        </mxCell>
        <mxCell id="iAju_3nY3JwR_g3rggPn-375" value="" style="shape=mxgraph.flowchart.process;fillColor=#AE4132;strokeColor=none;strokeWidth=2;opacity=50" vertex="1" parent="1">
          <mxGeometry x="766.5000000000032" y="859.9999999999998" width="19.999999999998863" height="19.99999999999983" as="geometry" />
        </mxCell>
        <mxCell id="iAju_3nY3JwR_g3rggPn-376" value="问卷调查、生成二维码" style="align=left;strokeColor=#DEEDFF" vertex="1" parent="1">
          <mxGeometry x="126.5" y="840.0000000000002" width="320" height="20" as="geometry" />
        </mxCell>
        <mxCell id="iAju_3nY3JwR_g3rggPn-379" value="" style="shape=mxgraph.flowchart.process;fillColor=#AE4132;strokeColor=none;strokeWidth=2;opacity=50" vertex="1" parent="1">
          <mxGeometry x="686.5" y="800" width="40" height="20" as="geometry" />
        </mxCell>
        <mxCell id="iAju_3nY3JwR_g3rggPn-380" value="" style="shape=mxgraph.flowchart.process;fillColor=#AE4132;strokeColor=none;strokeWidth=2;opacity=50" vertex="1" parent="1">
          <mxGeometry x="686.5000000000032" y="779.9999999999998" width="19.999999999998863" height="19.99999999999983" as="geometry" />
        </mxCell>
      </root>
    </mxGraphModel>
  </diagram>
</mxfile>
